<?xml version="1.0" encoding="utf-8"?>
<!-- Generator: Adobe Illustrator 23.1.1, SVG Export Plug-In . SVG Version: 6.00 Build 0)  -->
<svg version="1.1" id="Layer_1" xmlns="http://www.w3.org/2000/svg" xmlns:xlink="http://www.w3.org/1999/xlink" x="0px" y="0px"
	 viewBox="0 0 184 40" enable-background="new 0 0 184 40" xml:space="preserve">
<g>
	<rect x="0.002" y="0.165" opacity="0" fill="#FFFFFF" width="184" height="40"/>
	<g>
		<g>
			<path fill="#231F20" d="M70.321,19.018c0.164,0.544,0.735,0.609,0.883-0.114c0.176-0.853-0.551-1.514-1.459-1.787
				c-1.982-0.596-4.691,1.469-2.949,3.852c0.813,1.11,2.087,1.274,3.022,1.942c0.346,0.248,2.074,1.54,0.102,3.543
				c-1.439,1.458-4.171,0.739-4.356-0.933c-0.032-0.423,0.442-0.371,0.225-1.389c-0.144-0.554-1.314-0.534-1.54,0.514
				c-0.152,0.705-0.145,2.426,2.209,3.533c3.337,1.572,7.755-1.715,5.762-4.663c-1.285-1.859-3.971-2.521-4.437-3.658
				C67.167,18.361,69.944,17.776,70.321,19.018"/>
			<path fill="#231F20" d="M17.833,26.382c-0.397-1.556-0.152-4.754,0.092-6.625c0.443-3.376,1.41-5.243,1.414-7.295
				c0-0.953-0.297-2.934-2.385-3.014C11.799,9.25,9.9,21.785,9.65,23.558c-0.106-0.813-0.046-5.442-0.424-8.816
				C8.671,9.777,7.59,9.473,6.523,9.394C2.667,9.106,2.41,16.548,2.445,23.642c-0.003-1.45,0.177-4.404-1.184-5.917
				c-0.676-0.754-1.731-0.678-1.025,0.318c0.076,0.107,0.161,0.34,0.264,0.498c1.327,2.013,1.061,10.067,2.422,10.002
				c0.424-0.021,1.068-0.195,1.013-2.003c-0.162-5.453,0.253-15.216,2.11-15.224c1.971,0,1.535,9.696,2.11,13.477
				c0.319,1.914,2.315,2.073,2.931-0.647c0.824-3.635,0.865-5.986,2.663-9.767c2.391-5.025,4.367-3.383,3.518,0.124
				c-0.436,1.797-1.895,6.135-1.166,11.12c0.212,1.451,1.148,3.287,1.85,2.891C18.349,28.289,18.147,27.607,17.833,26.382"/>
			<path fill="#231F20" d="M20.581,18.725c-0.5,0.411-2.137,3.839-1.427,7.324c0.688,2.918,3.461,3.647,5.71,0.976
				c1.25,2.729,5.646,1.483,7.961-1.869c0.152,1.598,0.279,1.858,0.308,1.993c0.214,0.976,1.281,1.364,1.555,0.523
				c0.233-0.711,1.082-4.356,3.164-6.505c0.542-0.56,2.383-1.315,1.885,0.681c-0.121,0.486-0.982,3.452-0.954,4.766
				c0.027,1.36,0.453,2.505,1.366,1.931c0.387-0.243,0.217-1.373,0.167-2.05c-0.205-2.876,0.696-4.276,1.159-5.468
				c0.462-1.192,0.129-2.613-1.871-2.321c-2.165,0.314-4.274,2.813-5.352,5.988c0.024-5.034,2.681-10.047,4.433-14.32
				c0.276-0.507-0.831-1.776-2.053-0.466c-1.123,1.206-3.48,8.669-3.686,12.162c-0.082,0.603-1.027,3.109-2.464,4.192
				c-1.438,1.082-3.862,1.602-3.904-1.041c-0.041-2.644,1.424-5,2.52-5.451c0.602-0.249,0.897,0.289,1.136,0.575
				c0.357,0.423,1.741,0.685,1.699-0.562c-0.043-1.301-1.466-2.342-3.451-1.37c-2.905,1.422-3.757,4.809-3.986,6.232
				c-0.301,1.877-1.41,2.671-1.588,2.795c-0.179,0.123-1.672,1.259-1.85-1.411c-0.054-1.698,0.397-3.465,0.864-4.739
				c0.466-1.273,0.41-1.123,0.492-1.466C22.663,18.796,21.527,17.949,20.581,18.725"/>
			<path fill="#231F20" d="M22.65,14.927c-0.794,0.066-1.663,1.103-1.103,2.185c0.316,0.458,0.788,0.575,1.234,0.404
				c0.437-0.167,1.144-0.917,1.164-1.561C23.965,15.29,23.568,14.852,22.65,14.927"/>
			<path fill="#231F20" d="M48.584,20.392c0.133,0.274,0.665,0.353,0.835-0.274c0.192-0.705-0.419-2.46-1.781-2.503
				c-1.304-0.041-2.351,0.7-3.348,1.797c-0.924,1.016-3.607,4.776-3.441,7.518c0.122,1.459,1.447,1.994,2.989,1.089
				c1.87-1.096,3.194-3.122,3.472-3.461c0.072,2.392,2.106,3.953,4.529,1.643c0.298,0.576,0.833,1.309,1.473,1.749
				c1.761,1.21,4.917,0.963,7.238-2.714c0.482,1.726,0.77,2.404,0.934,2.722c0.472,0.916,1.434,1.083,1.51-0.113
				c0.023-0.38-0.392-1.277-0.72-2.506c-0.929-3.488-2.244-9.591,0.689-13.693c1.252-1.398,2.568-1.757,2.751-0.145
				c0.101,0.884-0.06,4.808-2.936,9.964c-0.421,0.905,0.459,1.155,0.73,0.545c0.4-0.903,4.149-6.595,4.046-10.437
				c-0.062-2.29-3.427-3.514-5.825-0.42c-2.3,2.968-2.475,8.751-1.664,12.038c-1.56,2.856-3.286,5.156-5.495,4.006
				c-2.332-1.458-1.592-6.441-0.052-7.54c1.042-0.741,1.682,0.126,1.11,1.191c-0.76,1.418-1.32,1.637-1.797,2.014
				c-0.637,0.503-0.229,1.142,0.37,0.924c1.839-0.668,2.748-2.155,3.123-3.36c1.016-3.266-2.965-4.443-4.982-0.708
				c-1.377,2.547-0.844,4.745-0.853,5.055c-0.412,0.482-1.757,2.3-1.983,1.068c-0.218-1.191,0.136-3.069,0.216-3.596
				c0.205-1.344-1.14-1.878-1.931-0.708c-0.827,1.223-2.404,4.489-4.315,5.424c-1.839,0.995-0.154-4.561,1.274-6.154
				c0.853-1.047,2.176-2.177,3.472-0.842C48.429,20.215,48.455,20.131,48.584,20.392"/>
			<path fill="#231F20" d="M72.009,17.193h0.06c0.07,0,0.128-0.025,0.128-0.082c0-0.05-0.036-0.084-0.116-0.084
				c-0.035,0-0.059,0.003-0.072,0.007V17.193z M72.006,17.501h-0.127v-0.547c0.052-0.01,0.12-0.019,0.211-0.019
				c0.104,0,0.153,0.014,0.192,0.042c0.03,0.025,0.053,0.067,0.053,0.118c0,0.064-0.046,0.109-0.114,0.13v0.006
				c0.053,0.018,0.085,0.062,0.1,0.135c0.018,0.083,0.027,0.118,0.041,0.134h-0.137c-0.018-0.021-0.028-0.066-0.042-0.13
				c-0.011-0.061-0.045-0.088-0.117-0.088h-0.06V17.501z M72.089,16.776c-0.241,0-0.42,0.198-0.42,0.439
				c0,0.245,0.18,0.439,0.426,0.439c0.243,0.003,0.42-0.194,0.42-0.439c0-0.241-0.178-0.439-0.422-0.439H72.089z M72.095,16.666
				c0.317,0,0.561,0.246,0.561,0.549c0,0.312-0.244,0.552-0.563,0.552c-0.315,0-0.566-0.241-0.566-0.552
				c0-0.304,0.251-0.549,0.566-0.549H72.095z"/>
		</g>
		<line fill="none" stroke="#EBAB33" stroke-width="0.75" x1="78.946" y1="20.786" x2="184.002" y2="20.786"/>
		<g>
			<path fill="#231F20" d="M79.412,14.086c0-2.51,1.908-4.213,4.158-4.213c2.419,0,3.487,1.556,3.748,2.714l-1.692,0.534
				c-0.125-0.557-0.636-1.499-2.056-1.499c-1.079,0-2.295,0.772-2.295,2.464c0,1.511,1.113,2.386,2.317,2.386
				c1.397,0,1.953-0.932,2.112-1.51l1.716,0.488c-0.262,1.113-1.329,2.817-3.828,2.817C81.274,18.266,79.412,16.597,79.412,14.086z"
				/>
			<path fill="#231F20" d="M88.259,15.188v-5.145h1.795v4.998c0,0.976,0.545,1.465,1.397,1.465s1.397-0.489,1.397-1.465v-4.998
				h1.795v5.145c0,2.022-1.42,3.089-3.192,3.089S88.259,17.21,88.259,15.188z"/>
			<path fill="#231F20" d="M100.025,12.474c-0.057-0.375-0.363-1.011-1.34-1.011c-0.67,0-1.102,0.42-1.102,0.863
				c0,0.386,0.238,0.67,0.795,0.772l1.079,0.205c1.534,0.284,2.329,1.272,2.329,2.419c0,1.261-1.056,2.545-2.976,2.545
				c-2.226,0-3.181-1.443-3.294-2.578l1.647-0.398c0.068,0.739,0.568,1.386,1.67,1.386c0.704,0,1.136-0.341,1.136-0.841
				c0-0.408-0.329-0.704-0.863-0.807l-1.102-0.204c-1.363-0.262-2.192-1.171-2.192-2.363c0-1.521,1.34-2.589,2.885-2.589
				c2.01,0,2.771,1.204,2.942,2.147L100.025,12.474z"/>
			<path fill="#231F20" d="M106.396,11.758v6.338h-1.795v-6.338h-2.476v-1.715h6.758v1.715H106.396z"/>
			<path fill="#231F20" d="M113.29,9.873c2.26,0,4.18,1.646,4.18,4.202c0,2.544-1.92,4.191-4.18,4.191
				c-2.272,0-4.191-1.647-4.191-4.191C109.099,11.519,111.019,9.873,113.29,9.873z M113.29,16.495c1.113,0,2.317-0.75,2.317-2.431
				c0-1.682-1.204-2.442-2.317-2.442c-1.124,0-2.329,0.76-2.329,2.442C110.961,15.745,112.166,16.495,113.29,16.495z"/>
			<path fill="#231F20" d="M125.897,18.096v-5.339l-2.102,5.339h-1.454l-2.101-5.27v5.27h-1.704v-8.053h2.34l2.215,5.441
				l2.101-5.441h2.465v8.053H125.897z"/>
			<path fill="#231F20" d="M132.209,18.096v-8.053h5.191v1.704h-3.397v1.703h2.987v1.636h-2.975v3.01H132.209z"/>
			<path fill="#231F20" d="M140.864,15.097h-0.636v2.999h-1.795v-8.053h3.192c1.59,0,2.612,1.09,2.612,2.522
				c0,1.09-0.602,1.92-1.59,2.272l1.635,3.26h-1.976L140.864,15.097z M141.284,13.553c0.738,0,1.136-0.409,1.136-0.977
				c0-0.602-0.398-0.977-1.136-0.977h-1.057v1.954H141.284z"/>
			<path fill="#231F20" d="M150.154,16.46h-3.112l-0.579,1.635h-1.885l3.033-8.053h2.078l2.999,8.053h-1.953L150.154,16.46z
				 M147.632,14.825h1.954l-0.966-2.784L147.632,14.825z"/>
			<path fill="#231F20" d="M160.819,18.096v-5.339l-2.102,5.339h-1.454l-2.101-5.27v5.27h-1.704v-8.053h2.34l2.215,5.441
				l2.101-5.441h2.465v8.053H160.819z"/>
			<path fill="#231F20" d="M164.11,18.096v-8.053h1.818v8.053H164.11z"/>
			<path fill="#231F20" d="M172.55,18.096l-3.317-5.293v5.293h-1.784v-8.053h2.181l3.022,4.895v-4.895h1.795v8.053H172.55z"/>
			<path fill="#231F20" d="M181.953,18.096l-0.113-0.818c-0.352,0.511-1.113,0.988-2.26,0.988c-2.237,0-4.077-1.647-4.077-4.191
				c0-2.533,1.919-4.202,4.191-4.202c2.306,0,3.373,1.363,3.725,2.487l-1.727,0.602c-0.125-0.5-0.658-1.409-1.998-1.409
				c-1.091,0-2.374,0.727-2.374,2.522c0,1.681,1.113,2.556,2.42,2.556c1.329,0,1.885-0.863,1.987-1.318h-2.419v-1.522h4.1v4.305
				H181.953z"/>
		</g>
		<g>
			<g>
				<path fill="#231F20" d="M79.689,29.337v-5.853h2.047c1.486,0,2.782,1.015,2.782,2.939c0,1.915-1.313,2.914-2.798,2.914H79.689z
					 M81.695,28.619c1.081,0,1.989-0.727,1.989-2.196c0-1.478-0.891-2.221-1.973-2.221h-1.213v4.417H81.695z"/>
				<path fill="#231F20" d="M89.012,28.206c-0.223,0.702-0.859,1.255-1.783,1.255c-1.065,0-1.998-0.776-1.998-2.121
					c0-1.247,0.9-2.097,1.899-2.097c1.221,0,1.907,0.842,1.907,2.08c0,0.1-0.008,0.199-0.017,0.248h-2.988
					c0.017,0.71,0.528,1.205,1.197,1.205c0.644,0,0.966-0.355,1.115-0.801L89.012,28.206z M88.228,26.943
					c-0.016-0.57-0.388-1.015-1.089-1.015c-0.652,0-1.049,0.503-1.081,1.015H88.228z"/>
				<path fill="#231F20" d="M90.36,28.057c0.049,0.412,0.363,0.743,0.925,0.743c0.438,0,0.677-0.248,0.677-0.528
					c0-0.248-0.182-0.438-0.512-0.512l-0.677-0.148c-0.619-0.132-0.991-0.554-0.991-1.115c0-0.677,0.636-1.254,1.412-1.254
					c1.089,0,1.428,0.71,1.51,1.065l-0.685,0.256c-0.033-0.207-0.198-0.66-0.825-0.66c-0.396,0-0.66,0.256-0.66,0.528
					c0,0.239,0.149,0.412,0.454,0.479l0.644,0.14c0.718,0.157,1.098,0.595,1.098,1.181c0,0.562-0.471,1.23-1.453,1.23
					c-1.09,0-1.552-0.702-1.618-1.155L90.36,28.057z"/>
				<path fill="#231F20" d="M94.143,23.302c0.314,0,0.562,0.248,0.562,0.562c0,0.306-0.248,0.553-0.562,0.553
					c-0.306,0-0.553-0.247-0.553-0.553C93.59,23.55,93.838,23.302,94.143,23.302z M93.763,29.337v-3.97h0.768v3.97H93.763z"/>
				<path fill="#231F20" d="M96.315,29.378c0.058,0.553,0.479,0.974,1.081,0.974c0.834,0,1.213-0.43,1.213-1.288v-0.57
					c-0.19,0.363-0.619,0.652-1.213,0.652c-1.057,0-1.824-0.802-1.824-1.924c0-1.073,0.735-1.932,1.824-1.932
					c0.611,0,1.024,0.231,1.222,0.627v-0.553h0.767v3.673c0,1.007-0.495,1.989-1.989,1.989c-0.991,0-1.734-0.627-1.832-1.477
					L96.315,29.378z M98.643,27.223c0-0.767-0.462-1.271-1.131-1.271c-0.685,0-1.147,0.504-1.147,1.271
					c0,0.776,0.446,1.271,1.147,1.271C98.181,28.495,98.643,27.991,98.643,27.223z"/>
				<path fill="#231F20" d="M101.403,29.337h-0.776v-3.97h0.759v0.57c0.289-0.496,0.76-0.686,1.223-0.686
					c0.949,0,1.42,0.686,1.42,1.569v2.518h-0.776v-2.386c0-0.554-0.231-0.999-0.925-0.999c-0.61,0-0.925,0.487-0.925,1.09V29.337z"
					/>
				<path fill="#231F20" d="M108.728,28.206c-0.223,0.702-0.859,1.255-1.784,1.255c-1.065,0-1.997-0.776-1.997-2.121
					c0-1.247,0.899-2.097,1.899-2.097c1.222,0,1.907,0.842,1.907,2.08c0,0.1-0.008,0.199-0.016,0.248h-2.988
					c0.017,0.71,0.528,1.205,1.197,1.205c0.644,0,0.966-0.355,1.115-0.801L108.728,28.206z M107.943,26.943
					c-0.016-0.57-0.388-1.015-1.09-1.015c-0.652,0-1.049,0.503-1.081,1.015H107.943z"/>
				<path fill="#231F20" d="M112.528,28.734c-0.191,0.38-0.611,0.71-1.23,0.71c-1.165,0-1.882-0.925-1.882-2.104
					c0-1.123,0.759-2.081,1.882-2.081c0.702,0,1.081,0.347,1.213,0.669V23.36h0.768v5.242c0,0.38,0.032,0.669,0.041,0.735h-0.751
					c-0.017-0.091-0.041-0.297-0.041-0.536V28.734z M111.372,28.759c0.711,0,1.147-0.619,1.147-1.437
					c0-0.817-0.429-1.378-1.139-1.378c-0.71,0-1.172,0.578-1.172,1.395C110.208,28.156,110.628,28.759,111.372,28.759z"/>
				<path fill="#231F20" d="M116.998,29.337V23.36h0.767v2.568c0.191-0.355,0.652-0.678,1.313-0.678c1.206,0,1.825,0.925,1.825,2.08
					c0,1.181-0.668,2.113-1.849,2.113c-0.587,0-1.041-0.255-1.289-0.685v0.578H116.998z M118.937,25.936
					c-0.686,0-1.181,0.536-1.181,1.394c0,0.859,0.495,1.421,1.181,1.421c0.71,0,1.173-0.562,1.173-1.421
					C120.11,26.472,119.655,25.936,118.937,25.936z"/>
				<path fill="#231F20" d="M121.878,30.996l0.991-2.097l-1.709-3.533h0.891l1.238,2.74l1.189-2.74h0.834l-2.584,5.63H121.878z"/>
				<path fill="#231F20" d="M131.954,27.702h-2.592l-0.619,1.634h-0.867l2.328-5.853h0.933l2.328,5.853h-0.875L131.954,27.702z
					 M129.65,26.951h2.014l-1.015-2.625L129.65,26.951z"/>
				<path fill="#231F20" d="M135.135,27.066l1.073-0.156c0.24-0.033,0.306-0.157,0.306-0.297c0-0.388-0.256-0.71-0.858-0.71
					c-0.545,0-0.851,0.339-0.9,0.801l-0.743-0.173c0.083-0.759,0.768-1.288,1.626-1.288c1.189,0,1.652,0.677,1.652,1.453v1.989
					c0,0.347,0.032,0.554,0.049,0.652h-0.759c-0.017-0.099-0.041-0.248-0.041-0.536c-0.173,0.28-0.57,0.66-1.279,0.66
					c-0.81,0-1.33-0.562-1.33-1.189C133.929,27.562,134.449,27.166,135.135,27.066z M136.513,27.636v-0.181l-1.214,0.181
					c-0.33,0.05-0.578,0.24-0.578,0.595c0,0.297,0.248,0.578,0.644,0.578C136.001,28.808,136.513,28.503,136.513,27.636z"/>
				<path fill="#231F20" d="M140.701,26.151c-0.116-0.017-0.231-0.025-0.339-0.025c-0.651,0-1.089,0.347-1.089,1.222v1.989h-0.776
					v-3.97h0.759v0.694c0.289-0.611,0.784-0.76,1.189-0.76c0.108,0,0.215,0.017,0.256,0.025V26.151z"/>
				<path fill="#231F20" d="M145.226,27.348c0,1.213-0.842,2.113-2.031,2.113s-2.031-0.9-2.031-2.113
					c0-1.206,0.842-2.105,2.031-2.105S145.226,26.142,145.226,27.348z M144.434,27.348c0-0.916-0.578-1.412-1.238-1.412
					s-1.238,0.495-1.238,1.412c0,0.925,0.578,1.42,1.238,1.42S144.434,28.272,144.434,27.348z"/>
				<path fill="#231F20" d="M146.996,29.337h-0.776v-3.97h0.759v0.57c0.289-0.496,0.76-0.686,1.222-0.686
					c0.95,0,1.42,0.686,1.42,1.569v2.518h-0.775v-2.386c0-0.554-0.232-0.999-0.925-0.999c-0.611,0-0.925,0.487-0.925,1.09V29.337z"
					/>
				<path fill="#231F20" d="M155.246,23.484c1.115,0,1.766,0.66,1.766,1.585c0,0.627-0.363,1.073-0.875,1.263
					c0.669,0.164,1.057,0.759,1.057,1.412c0,0.925-0.734,1.593-1.808,1.593h-2.047v-5.853H155.246z M155.156,26.043
					c0.652,0,1.041-0.388,1.041-0.933c0-0.554-0.404-0.916-1.074-0.916h-0.974v1.849H155.156z M155.272,28.627
					c0.652,0,1.098-0.363,1.098-0.933c0-0.562-0.355-0.958-1.065-0.958h-1.156v1.89H155.272z"/>
				<path fill="#231F20" d="M160.4,26.151c-0.116-0.017-0.231-0.025-0.339-0.025c-0.651,0-1.089,0.347-1.089,1.222v1.989h-0.776
					v-3.97h0.759v0.694c0.289-0.611,0.784-0.76,1.189-0.76c0.108,0,0.215,0.017,0.256,0.025V26.151z"/>
				<path fill="#231F20" d="M164.926,27.348c0,1.213-0.842,2.113-2.031,2.113s-2.031-0.9-2.031-2.113
					c0-1.206,0.842-2.105,2.031-2.105S164.926,26.142,164.926,27.348z M164.133,27.348c0-0.916-0.578-1.412-1.238-1.412
					s-1.238,0.495-1.238,1.412c0,0.925,0.578,1.42,1.238,1.42S164.133,28.272,164.133,27.348z"/>
				<path fill="#231F20" d="M166.926,25.366h0.858v0.702h-0.858v2.064c0,0.363,0.148,0.544,0.553,0.544
					c0.099,0,0.24-0.016,0.305-0.033v0.66c-0.066,0.025-0.264,0.075-0.528,0.075c-0.677,0-1.106-0.412-1.106-1.131v-2.179h-0.759
					v-0.702h0.215c0.428,0,0.611-0.264,0.611-0.611v-0.644h0.71V25.366z"/>
				<path fill="#231F20" d="M169.594,29.337h-0.776V23.36h0.776v2.468c0.288-0.42,0.751-0.578,1.205-0.578
					c0.95,0,1.42,0.686,1.42,1.569v2.518h-0.775v-2.386c0-0.554-0.232-0.999-0.925-0.999c-0.595,0-0.908,0.463-0.925,1.049V29.337z"
					/>
				<path fill="#231F20" d="M176.919,28.206c-0.223,0.702-0.859,1.255-1.784,1.255c-1.065,0-1.997-0.776-1.997-2.121
					c0-1.247,0.899-2.097,1.899-2.097c1.222,0,1.907,0.842,1.907,2.08c0,0.1-0.008,0.199-0.016,0.248h-2.988
					c0.016,0.71,0.528,1.205,1.197,1.205c0.644,0,0.966-0.355,1.114-0.801L176.919,28.206z M176.134,26.943
					c-0.017-0.57-0.388-1.015-1.09-1.015c-0.652,0-1.049,0.503-1.082,1.015H176.134z"/>
				<path fill="#231F20" d="M180.14,26.151c-0.116-0.017-0.231-0.025-0.339-0.025c-0.651,0-1.089,0.347-1.089,1.222v1.989h-0.776
					v-3.97h0.759v0.694c0.289-0.611,0.784-0.76,1.189-0.76c0.108,0,0.215,0.017,0.256,0.025V26.151z"/>
				<path fill="#231F20" d="M181.298,28.057c0.049,0.412,0.363,0.743,0.924,0.743c0.438,0,0.678-0.248,0.678-0.528
					c0-0.248-0.181-0.438-0.512-0.512l-0.677-0.148c-0.619-0.132-0.991-0.554-0.991-1.115c0-0.677,0.636-1.254,1.412-1.254
					c1.09,0,1.429,0.71,1.511,1.065l-0.686,0.256c-0.033-0.207-0.198-0.66-0.826-0.66c-0.396,0-0.66,0.256-0.66,0.528
					c0,0.239,0.149,0.412,0.455,0.479l0.643,0.14c0.719,0.157,1.098,0.595,1.098,1.181c0,0.562-0.47,1.23-1.453,1.23
					c-1.089,0-1.552-0.702-1.617-1.155L181.298,28.057z"/>
			</g>
		</g>
	</g>
</g>
</svg>
